<svg xmlns="http://www.w3.org/2000/svg" viewBox="20 106.27342608443917 535 362.45545312473246"><rect height="100%" width="100%" x="20" y="106.27342608443917" fill="#ffffff"/> <svg xmlns="http://www.w3.org/2000/svg" xmlns:xlink="http://www.w3.org/1999/xlink" version="1.1" id="qqqq_1" x="242.9012840412179" y="176.27342608443917" viewBox="2158.699951171875 883.0999755859375 682.60009765625 1233.7999267578125" xml:space="preserve" height="161.22448523174322" width="89.1975143016935" preserveAspectRatio="xMinYMin" enable-background="new 0 0 5000 3000" style="overflow: visible;"><polygon points="2193.7,1347.9 2193.7,1877 2158.7,1842.1 2158.7,1382.9   " style=""></polygon><polygon points="2342.5,1123.5 2342.5,1976.9 2307.5,1941.9 2307.5,1158.5   " style=""></polygon><polygon points="2675,1549.9 2675,1842.1 2640,1877 2640,1573.9 2465,1506.4 2465,918.1 2500,883.1 2500,1482.4   " style=""></polygon><polygon points="2675,1260.1 2675,1412.7 2640,1412.7 2640,1225   " style=""></polygon><polygon points="2500,1616.6 2500,2116.9 2465,2081.9 2465,1651.7   " style=""></polygon><polygon points="2841.3,1382.9 2841.3,1831.8 2806.3,1866.8 2806.3,1347.9   " style=""></polygon></svg> <svg xmlns="http://www.w3.org/2000/svg" y="355.81887554706225" viewBox="4.980000019073486 8.739999771118164 395 42.910003662109375" x="90" height="42.910003662109375" width="395" style="overflow: visible;"><g fill="#000" style=""><path d="M31.19 50.95Q31.19 51.12 31.89 50.68Q32.60 50.24 33.18 49.04Q33.77 47.84 33.77 45.49L33.77 45.49L33.77 32.19L11.73 32.19L11.73 45.49Q11.73 47.84 12.31 49.04Q12.90 50.24 13.60 50.65Q14.31 51.06 14.31 50.95L14.31 50.95L4.98 50.95Q4.98 51.12 5.69 50.68Q6.39 50.24 6.95 49.04Q7.50 47.84 7.50 45.49L7.50 45.49L7.50 16.06Q7.50 13.72 6.95 12.52Q6.39 11.32 5.69 10.90Q4.98 10.49 4.98 10.61L4.98 10.61L14.31 10.61Q14.31 10.49 13.60 10.90Q12.90 11.32 12.31 12.52Q11.73 13.72 11.73 16.06L11.73 16.06L11.73 29.61L33.77 29.61L33.77 16.06Q33.77 13.72 33.18 12.52Q32.60 11.32 31.89 10.90Q31.19 10.49 31.19 10.61L31.19 10.61L40.51 10.61Q40.51 10.44 39.81 10.88Q39.10 11.32 38.55 12.52Q37.99 13.72 37.99 16.06L37.99 16.06L37.99 45.49Q37.99 47.84 38.58 49.04Q39.16 50.24 39.87 50.65Q40.57 51.06 40.57 50.95L40.57 50.95L31.19 50.95ZM77.14 50.95L55.04 50.95Q55.04 51.12 55.74 50.68Q56.44 50.24 57.00 48.92Q57.56 47.61 57.56 45.08L57.56 45.08L57.56 16.30Q57.56 13.89 57.00 12.63Q56.44 11.37 55.74 10.90Q55.04 10.44 55.04 10.61L55.04 10.61L76.26 10.61L76.26 16.47Q75.20 12.96 69.93 12.96L69.93 12.96L61.78 12.96L61.78 29.61L71.86 29.61Q73.03 29.61 73.86 29.23Q74.68 28.84 75.09 28.43Q75.50 28.02 75.56 27.91L75.56 27.91L75.56 33.59Q75.50 33.48 75.09 33.07Q74.68 32.66 73.88 32.30Q73.09 31.95 71.92 31.95L71.92 31.95L61.78 31.95L61.78 48.60L70.92 48.60Q73.56 48.60 75.47 47.52Q77.37 46.43 78.19 44.73L78.19 44.73L77.14 50.95ZM102.16 51.65Q99.11 51.65 96.29 50.80Q93.48 49.95 91.25 48.43L91.25 48.43L91.25 41.33Q92.78 45.26 95.91 47.28Q99.05 49.31 102.45 49.31L102.45 49.31Q105.85 49.31 108.14 47.05Q110.42 44.79 110.42 41.45L110.42 41.45Q110.42 39.22 109.52 37.64Q108.61 36.06 106.61 34.68Q104.62 33.30 100.99 31.60L100.99 31.60Q95.88 29.25 93.57 26.70Q91.25 24.15 91.25 20.52L91.25 20.52Q91.25 17.41 92.75 14.98Q94.24 12.55 96.79 11.23Q99.34 9.91 102.39 9.91L102.39 9.91Q105.03 9.91 107.55 10.64Q110.07 11.37 112.24 12.72L112.24 12.72L112.24 19.05Q110.83 15.83 107.99 14.04Q105.15 12.25 102.22 12.25L102.22 12.25Q98.87 12.25 96.82 14.42Q94.77 16.59 94.77 19.58L94.77 19.58Q94.77 21.75 96.00 23.30Q97.23 24.86 99.02 25.91Q100.81 26.97 104.03 28.49L104.03 28.49Q107.32 30.08 109.43 31.42Q111.54 32.77 112.95 34.94Q114.35 37.11 114.35 40.22L114.35 40.22Q114.35 43.74 112.68 46.32Q111.01 48.89 108.23 50.27Q105.44 51.65 102.16 51.65L102.16 51.65ZM131.16 12.96Q128.58 12.96 126.88 13.95Q125.18 14.95 124.42 16.47L124.42 16.47L125.24 10.61L153.03 10.61L153.85 16.47Q153.09 14.95 151.39 13.95Q149.69 12.96 147.11 12.96L147.11 12.96L141.25 12.96L141.25 45.49Q141.25 47.84 141.83 49.07Q142.42 50.30 143.12 50.71Q143.83 51.12 143.83 50.95L143.83 50.95L134.51 50.95Q134.51 51.12 135.21 50.71Q135.91 50.30 136.47 49.10Q137.03 47.90 137.03 45.49L137.03 45.49L137.03 12.96L131.16 12.96ZM165.27 50.95Q165.27 51.12 165.97 50.68Q166.68 50.24 167.26 49.04Q167.85 47.84 167.85 45.49L167.85 45.49L167.85 16.06Q167.85 13.72 167.29 12.52Q166.74 11.32 166.03 10.90Q165.33 10.49 165.33 10.61L165.33 10.61L174.65 10.61Q174.65 10.49 173.95 10.90Q173.24 11.32 172.66 12.52Q172.07 13.72 172.07 16.06L172.07 16.06L172.07 45.49Q172.07 47.84 172.66 49.04Q173.24 50.24 173.95 50.65Q174.65 51.06 174.65 50.95L174.65 50.95L165.27 50.95ZM211.10 35.29L196.50 35.29L192.75 44.62Q191.87 46.78 191.87 48.19L191.87 48.19Q191.87 50.13 193.63 50.95L193.63 50.95L185.25 50.95Q185.83 50.95 186.95 49.77Q188.06 48.60 189.53 45.14L189.53 45.14L204.83 8.74L220.01 45.32Q221.30 48.48 222.50 49.66Q223.71 50.83 224.41 50.95L224.41 50.95L214.68 50.95Q216.14 50.24 216.14 48.78L216.14 48.78Q216.14 47.55 215.21 45.26L215.21 45.26L211.10 35.29ZM197.50 32.89L210.16 32.89L203.77 17.24L197.50 32.89ZM257.97 16.06Q257.97 13.72 257.42 12.52Q256.86 11.32 256.16 10.90Q255.45 10.49 255.45 10.61L255.45 10.61L264.77 10.61Q264.77 10.49 264.07 10.90Q263.37 11.32 262.78 12.52Q262.19 13.72 262.19 16.06L262.19 16.06L262.19 48.60L271.81 48.60Q274.45 48.60 276.35 47.52Q278.26 46.43 279.08 44.73L279.08 44.73L278.02 50.95L255.45 50.95Q255.45 51.12 256.16 50.68Q256.86 50.24 257.42 48.92Q257.97 47.61 257.97 45.08L257.97 45.08L257.97 16.06ZM313.07 35.29L298.47 35.29L294.72 44.62Q293.84 46.78 293.84 48.19L293.84 48.19Q293.84 50.13 295.60 50.95L295.60 50.95L287.21 50.95Q287.80 50.95 288.91 49.77Q290.03 48.60 291.49 45.14L291.49 45.14L306.80 8.74L321.98 45.32Q323.27 48.48 324.47 49.66Q325.67 50.83 326.38 50.95L326.38 50.95L316.64 50.95Q318.11 50.24 318.11 48.78L318.11 48.78Q318.11 47.55 317.17 45.26L317.17 45.26L313.07 35.29ZM299.47 32.89L312.13 32.89L305.74 17.24L299.47 32.89ZM355.50 49.95Q353.98 50.48 352.01 50.71Q350.05 50.95 346.59 50.95L346.59 50.95L336.92 50.95Q337.68 50.77 338.56 49.63Q339.44 48.48 339.44 45.20L339.44 45.20L339.44 16.18Q339.44 13.13 338.62 11.99Q337.79 10.85 336.97 10.61L336.97 10.61L346.59 10.61Q350.34 10.61 352.30 10.93Q354.27 11.26 355.73 11.90L355.73 11.90Q358.31 13.13 359.72 15.36Q361.13 17.59 361.13 20.17L361.13 20.17Q361.13 24.10 358.75 26.94Q356.38 29.78 352.51 30.60L352.51 30.60Q355.15 30.90 357.52 32.13Q359.90 33.36 361.39 35.47Q362.89 37.58 362.89 40.28L362.89 40.28Q362.89 44.03 360.89 46.40Q358.90 48.78 355.50 49.95L355.50 49.95ZM353.86 14.72Q352.69 13.84 351.34 13.40Q349.99 12.96 347.70 12.96L347.70 12.96L343.66 12.96L343.66 29.61L348.41 29.61Q350.52 29.61 351.92 28.96Q353.33 28.32 354.39 27.26L354.39 27.26Q355.50 26.15 356.14 24.56Q356.79 22.98 356.79 21.34L356.79 21.34Q356.79 19.35 356.06 17.59Q355.32 15.83 353.86 14.72L353.86 14.72ZM355.09 33.65Q353.98 32.77 352.33 32.36Q350.69 31.95 347.88 31.95L347.88 31.95L343.66 31.95L343.66 48.60L349.23 48.60Q353.45 48.60 355.82 46.61Q358.20 44.62 358.20 40.28L358.20 40.28Q358.20 36.23 355.09 33.65L355.09 33.65ZM387.79 51.65Q384.74 51.65 381.93 50.80Q379.11 49.95 376.88 48.43L376.88 48.43L376.88 41.33Q378.41 45.26 381.55 47.28Q384.68 49.31 388.08 49.31L388.08 49.31Q391.48 49.31 393.77 47.05Q396.06 44.79 396.06 41.45L396.06 41.45Q396.06 39.22 395.15 37.64Q394.24 36.06 392.24 34.68Q390.25 33.30 386.62 31.60L386.62 31.60Q381.52 29.25 379.20 26.70Q376.88 24.15 376.88 20.52L376.88 20.52Q376.88 17.41 378.38 14.98Q379.87 12.55 382.42 11.23Q384.97 9.91 388.02 9.91L388.02 9.91Q390.66 9.91 393.18 10.64Q395.70 11.37 397.87 12.72L397.87 12.72L397.87 19.05Q396.47 15.83 393.62 14.04Q390.78 12.25 387.85 12.25L387.85 12.25Q384.51 12.25 382.45 14.42Q380.40 16.59 380.40 19.58L380.40 19.58Q380.40 21.75 381.63 23.30Q382.86 24.86 384.65 25.91Q386.44 26.97 389.66 28.49L389.66 28.49Q392.95 30.08 395.06 31.42Q397.17 32.77 398.58 34.94Q399.98 37.11 399.98 40.22L399.98 40.22Q399.98 43.74 398.31 46.32Q396.64 48.89 393.86 50.27Q391.07 51.65 387.79 51.65L387.79 51.65Z" transform="translate(0, 0)"></path></g></svg></svg>